<svg width="326" height="96" viewBox="0 0 326 96" fill="none" xmlns="http://www.w3.org/2000/svg">
<g clip-path="url(#clip0_1481_5941)">
<rect width="326" height="96" rx="16" fill="#F7EDE2"/>
<rect width="326" height="96" rx="16" fill="#D7DACE"/>
<rect x="229" y="15" width="10" height="10" rx="5" fill="#3B92E9"/>
<rect x="241" y="15" width="10" height="10" rx="5" fill="#3B92E9"/>
<rect x="253" y="15" width="10" height="10" rx="5" fill="#3B92E9"/>
<rect x="265" y="15" width="10" height="10" rx="5" fill="white"/>
<rect x="277" y="15" width="10" height="10" rx="5" fill="white"/>
<rect x="289" y="15" width="10" height="10" rx="5" fill="white"/>
<rect x="301" y="15" width="10" height="10" rx="5" fill="white"/>
<path fill-rule="evenodd" clip-rule="evenodd" d="M156.886 52.0232C165.474 51.4181 166.002 62.7939 164.086 68C162.269 65.3251 159.896 62.8139 157.812 60.6083C153.305 55.8383 150.149 52.498 156.886 52.0232ZM168.571 80C166.5 74.5729 164.843 62.7012 174.783 58.6308C184.723 54.5605 184 74 168.571 80ZM164.736 77.2882C158.987 78.1205 147.041 77.1377 145.246 66.548C143.45 55.9582 162.26 60.9197 164.736 77.2882Z" fill="#9B9B7A"/>
<path d="M148.796 83.7689C149.104 83.1268 149.258 82.8057 149.488 82.5712C149.691 82.3637 149.936 82.206 150.205 82.1093C150.509 82 150.854 82 151.543 82H178.457C179.146 82 179.491 82 179.795 82.1093C180.064 82.206 180.309 82.3637 180.512 82.5712C180.742 82.8057 180.896 83.1268 181.204 83.7689L181.972 85.3689C182.708 86.9024 183.075 87.6691 182.987 88.2923C182.91 88.8365 182.621 89.3236 182.188 89.6389C181.693 90 180.87 90 179.225 90H150.775C149.13 90 148.307 90 147.812 89.6389C147.379 89.3236 147.09 88.8365 147.013 88.2923C146.925 87.6691 147.292 86.9024 148.028 85.3689L148.796 83.7689Z" fill="#F6BD60"/>
<path d="M142.811 26.1223C142.506 27.6346 142.927 29.6854 143.834 30.9646C144.903 32.4754 146.942 32.9747 148.574 32.0325C149.397 31.5574 149.998 30.7755 150.244 29.8588C150.491 28.942 150.363 27.9656 149.889 27.1443C148.427 24.6129 145.114 24.7925 142.811 26.1223Z" fill="#3B92E9"/>
<circle cx="148.079" cy="30.0091" r="1" transform="rotate(-120 148.079 30.0091)" fill="white"/>
<path d="M154.267 33.0026C153.598 34.3926 153.499 36.4839 154.061 37.9475C154.724 39.6758 156.576 40.6639 158.39 40.1545C159.305 39.8977 160.08 39.2887 160.546 38.4614C161.012 37.6341 161.129 36.6564 160.873 35.7433C160.083 32.9291 156.828 32.2837 154.267 33.0026Z" fill="#3B92E9"/>
<circle cx="158.41" cy="38.0715" r="1" transform="rotate(-105.682 158.41 38.0715)" fill="white"/>
<path d="M162.625 43.5505C161.585 44.6896 160.889 46.6643 161.007 48.2276C161.145 50.0735 162.635 51.5519 164.519 51.5853C165.469 51.6021 166.387 51.2415 167.071 50.5829C167.755 49.9242 168.148 49.0215 168.165 48.0732C168.217 45.1507 165.285 43.5975 162.625 43.5505Z" fill="#3B92E9"/>
<circle cx="165.137" cy="49.5959" r="1" transform="rotate(-88.9864 165.137 49.5959)" fill="white"/>
<path fill-rule="evenodd" clip-rule="evenodd" d="M59.3158 0L47.2984 20.8148C46.0297 23.0123 45.973 25.7061 47.1482 27.955C53.8006 40.6866 67.2097 48.4284 81.5619 47.8238C84.0971 47.717 86.4016 46.3211 87.6704 44.1236L91.7904 36.9875C92.4636 35.8215 93.4516 34.8514 94.6382 34.2152C120.77 20.2037 132.565 23.1863 136.51 25.1966C137.381 25.6403 138.602 25.4264 139.091 24.5801L139.415 24.0194C139.823 23.3116 139.58 22.402 138.854 22.0259C127.483 16.1313 114.303 17.7574 104.392 20.4019C103.091 20.7492 101.978 19.3422 102.652 18.1755L113.145 0H59.3158Z" fill="#F28482"/>
<path fill-rule="evenodd" clip-rule="evenodd" d="M66.5428 0H61.7751L50.8989 19.1373C49.7506 21.1577 49.6994 23.6344 50.7629 25.7021C56.7836 37.4077 68.9194 44.5256 81.9086 43.9696C83.9365 43.8829 85.8013 42.8703 87 41.2413C74.4844 41.3072 77 25 66.4069 22.5648C57 17 66.5428 5.90046 66.5428 0Z" fill="#F09391"/>
<ellipse cx="138.169" cy="23.7366" rx="0.99656" ry="1.32875" transform="rotate(47.8142 138.169 23.7366)" fill="#423E37"/>
<path fill-rule="evenodd" clip-rule="evenodd" d="M181 90H149L149.857 96H180.143L181 90Z" fill="#F6BD60"/>
<path fill-rule="evenodd" clip-rule="evenodd" d="M181 90H149L149.857 96H180.143L181 90Z" fill="#D5A14E"/>
</g>
<defs>
<clipPath id="clip0_1481_5941">
<rect width="326" height="96" fill="white"/>
</clipPath>
</defs>
</svg>
