<svg width="32" height="42" viewBox="0 0 32 42" fill="none" xmlns="http://www.w3.org/2000/svg">
<path d="M17.5 22.5C17.1441 18.8169 19.5543 11.5035 26.2404 10.6042C32.9266 9.70497 30.5 22 17.5 22.5Z" fill="#9B9B7A"/>
<path d="M15.3971 22.7438C11.5561 23.2999 3.57429 22.6433 2.37476 15.5679C1.17523 8.49249 13.7426 11.8074 15.3971 22.7438Z" fill="#9B9B7A"/>
<path d="M13.3151 16C14.7518 12.0954 14.3558 3.56354 7.9149 4.01742C0.525845 4.53811 9.00478 9.65504 13.3151 16Z" fill="#9B9B7A"/>
<path d="M15.3675 18C14.0005 14.5633 16.4561 5.61346 22.5843 6.01295C29.6145 6.47125 19.4685 12.4153 15.3675 18Z" fill="#9B9B7A"/>
<path fill-rule="evenodd" clip-rule="evenodd" d="M14.3483 4C13.0614 2.99559 12.2215 1.88404 14.0829 1.78294C14.7308 1.74775 15.2377 1.89489 15.623 2.15208C15.3248 0.915931 15.2056 -0.099182 15.8618 0.00774238C16.7192 0.147455 17.0475 1.03172 16.9907 2.33114C17.3964 1.96602 17.9749 1.74023 18.7612 1.78294C20.6226 1.88404 20.1541 2.9956 18.8798 4C20.1541 5.00441 20.6226 6.11596 18.7612 6.21706C17.9749 6.25977 17.3964 6.03398 16.9907 5.66886C17.0475 6.96828 16.7192 7.85254 15.8618 7.99226C15.2056 8.09918 15.3248 7.08407 15.623 5.84792C15.2377 6.10511 14.7308 6.25225 14.0829 6.21706C12.2215 6.11596 13.0614 5.00441 14.3483 4Z" fill="#F28482"/>
<path d="M7.55777 24.8845C7.7183 24.5634 7.79857 24.4029 7.91831 24.2856C8.02421 24.1819 8.15184 24.103 8.29196 24.0547C8.45042 24 8.6299 24 8.98885 24H23.0111C23.3701 24 23.5496 24 23.708 24.0547C23.8482 24.103 23.9758 24.1819 24.0817 24.2856C24.2014 24.4029 24.2817 24.5634 24.4422 24.8845L24.8422 25.6845C25.2256 26.4512 25.4173 26.8345 25.3712 27.1462C25.331 27.4183 25.1805 27.6618 24.9551 27.8195C24.697 28 24.2684 28 23.4111 28H8.58885C7.73164 28 7.30303 28 7.04489 27.8195C6.81949 27.6618 6.66898 27.4183 6.62877 27.1462C6.58273 26.8345 6.77441 26.4512 7.15777 25.6845L7.55777 24.8845Z" fill="#F6BD60"/>
<mask id="mask0_614_4736" style="mask-type:alpha" maskUnits="userSpaceOnUse" x="8" y="28" width="16" height="14">
<path d="M8 28H24L22.2453 40.2828C22.1046 41.2681 21.2607 42 20.2654 42H11.7346C10.7393 42 9.89545 41.2681 9.75469 40.2828L8 28Z" fill="#F6BD60"/>
</mask>
<g mask="url(#mask0_614_4736)">
<path d="M8 28H24L22.3925 39.2526C22.2533 40.2267 22.1837 40.7138 21.9486 41.0802C21.7414 41.4031 21.4457 41.6596 21.0967 41.819C20.7008 42 20.2087 42 19.2247 42H12.7753C11.7913 42 11.2992 42 10.9033 41.819C10.5543 41.6596 10.2586 41.4031 10.0514 41.0802C9.81626 40.7138 9.74668 40.2267 9.60751 39.2525L8 28Z" fill="#F6BD60"/>
<path opacity="0.1" d="M8 28H24V33L19 32.1667L8 30.5V28Z" fill="black"/>
</g>
</svg>
