<svg width="32" height="42" viewBox="0 0 32 42" fill="none" xmlns="http://www.w3.org/2000/svg">
<path d="M17.5 22.7779C17.1442 19.0948 19.5543 11.7814 26.2405 10.8821C32.9266 9.98283 30.5 22.2779 17.5 22.7779Z" fill="#9B9B7A"/>
<path d="M15.3971 22.5509C11.5561 23.107 3.57429 22.4503 2.37476 15.375C1.17523 8.29957 13.7426 11.6145 15.3971 22.5509Z" fill="#9B9B7A"/>
<path fill-rule="evenodd" clip-rule="evenodd" d="M6.99475 15.1088C7.07879 14.3113 7.32614 13.5847 7.53509 13.1466L8.36393 13.542C8.19444 13.8973 7.97984 14.5232 7.90799 15.2051C7.83569 15.8912 7.91375 16.5728 8.25628 17.0995C8.76758 17.8856 8.77693 18.7377 8.60556 19.4473C8.43581 20.1502 8.08169 20.7516 7.79775 21.1024L7.08393 20.5247C7.29591 20.2628 7.57994 19.7824 7.71292 19.2318C7.84428 18.6878 7.82094 18.1144 7.48648 17.6002C6.98325 16.8265 6.91116 15.902 6.99475 15.1088Z" fill="#BABD8D"/>
<path fill-rule="evenodd" clip-rule="evenodd" d="M22.8488 15.0858C22.3353 14.4972 21.9806 13.8389 21.8064 13.3994L22.6381 13.0699C22.7793 13.4264 23.0839 13.9945 23.5229 14.4978C23.9647 15.0042 24.503 15.4004 25.106 15.505C26.0061 15.6611 26.6205 16.2193 27.0134 16.812C27.4026 17.3992 27.5971 18.0506 27.6593 18.4858L26.7737 18.6123C26.7273 18.2874 26.5727 17.7662 26.2678 17.3063C25.9666 16.8519 25.5418 16.4885 24.9531 16.3863C24.0672 16.2327 23.3596 15.6713 22.8488 15.0858Z" fill="#BABD8D"/>
<path d="M13.3151 16C14.7518 12.0954 14.3558 3.56354 7.9149 4.01742C0.525845 4.53811 9.00478 9.65504 13.3151 16Z" fill="#9B9B7A"/>
<path d="M15.3675 18C14.0005 14.5633 16.4561 5.61346 22.5843 6.01295C29.6145 6.47125 19.4685 12.4153 15.3675 18Z" fill="#9B9B7A"/>
<path fill-rule="evenodd" clip-rule="evenodd" d="M9.58875 6.05487C9.7567 5.61771 10.0049 5.24623 10.1927 5.02631L10.9531 5.67578C10.8301 5.81979 10.6448 6.09458 10.5222 6.41349C10.398 6.7368 10.3617 7.04288 10.4428 7.29183C10.6283 7.86129 10.4898 8.38305 10.2775 8.77285C10.0687 9.15607 9.77078 9.44929 9.54682 9.6121L8.9588 8.80326C9.08201 8.71369 9.27213 8.52795 9.39927 8.29452C9.52283 8.06769 9.56804 7.83514 9.49195 7.60152C9.31147 7.04739 9.4225 6.48762 9.58875 6.05487Z" fill="#BABD8D"/>
<path fill-rule="evenodd" clip-rule="evenodd" d="M11.6805 9.39593C11.8045 9.07305 11.9878 8.79868 12.1266 8.63626L12.6882 9.11594C12.5973 9.22231 12.4604 9.42526 12.3699 9.6608C12.2782 9.8996 12.2514 10.1257 12.3112 10.3095C12.4482 10.7301 12.3459 11.1155 12.1891 11.4034C12.035 11.6864 11.8149 11.903 11.6495 12.0233L11.2152 11.4258C11.3062 11.3597 11.4466 11.2225 11.5405 11.0501C11.6318 10.8826 11.6652 10.7108 11.609 10.5383C11.4757 10.129 11.5577 9.71555 11.6805 9.39593Z" fill="#BABD8D"/>
<path fill-rule="evenodd" clip-rule="evenodd" d="M10.1735 17.5862C10.2975 17.2633 10.4808 16.9889 10.6195 16.8265L11.1812 17.3062C11.0903 17.4126 10.9534 17.6155 10.8629 17.8511C10.7712 18.0899 10.7443 18.3159 10.8042 18.4998C10.9412 18.9204 10.8389 19.3058 10.6821 19.5937C10.5279 19.8767 10.3079 20.0933 10.1425 20.2135L9.70818 19.6161C9.79918 19.55 9.9396 19.4128 10.0335 19.2404C10.1248 19.0728 10.1581 18.9011 10.1019 18.7285C9.96865 18.3193 10.0507 17.9058 10.1735 17.5862Z" fill="#BABD8D"/>
<path fill-rule="evenodd" clip-rule="evenodd" d="M12.1735 18.5862C12.2975 18.2633 12.4808 17.9889 12.6195 17.8265L13.1812 18.3062C13.0903 18.4126 12.9534 18.6155 12.8629 18.8511C12.7712 19.0899 12.7443 19.3159 12.8042 19.4998C12.9412 19.9204 12.8389 20.3058 12.6821 20.5937C12.5279 20.8767 12.3079 21.0933 12.1425 21.2135L11.7082 20.6161C11.7992 20.55 11.9396 20.4128 12.0335 20.2404C12.1248 20.0728 12.1581 19.9011 12.1019 19.7285C11.9687 19.3193 12.0507 18.9058 12.1735 18.5862Z" fill="#BABD8D"/>
<path fill-rule="evenodd" clip-rule="evenodd" d="M21.6631 17.1847C21.3649 16.8852 21.1504 16.5439 21.0385 16.3081L21.8536 15.9212C21.9269 16.0756 22.085 16.3295 22.3025 16.548C22.523 16.7694 22.7617 16.9121 22.9967 16.9371C23.5341 16.9942 23.9128 17.3005 24.1556 17.6191C24.3943 17.9322 24.5261 18.2857 24.5776 18.5302L23.6947 18.7164C23.6663 18.5819 23.5834 18.3569 23.438 18.1661C23.2967 17.9808 23.1218 17.8578 22.9013 17.8344C22.3784 17.7788 21.9583 17.4811 21.6631 17.1847Z" fill="#BABD8D"/>
<path fill-rule="evenodd" clip-rule="evenodd" d="M19.8638 19.2167C19.6153 18.9671 19.4366 18.6827 19.3433 18.4863L20.0226 18.1638C20.0837 18.2925 20.2153 18.5041 20.3966 18.6861C20.5803 18.8706 20.7793 18.9896 20.975 19.0104C21.4228 19.0579 21.7384 19.3132 21.9407 19.5786C22.1396 19.8396 22.2494 20.1341 22.2924 20.3378L21.5567 20.493C21.533 20.3809 21.4639 20.1934 21.3428 20.0345C21.225 19.88 21.0793 19.7776 20.8956 19.758C20.4598 19.7117 20.1098 19.4636 19.8638 19.2167Z" fill="#BABD8D"/>
<path fill-rule="evenodd" clip-rule="evenodd" d="M14.3483 4C13.0614 2.99559 12.2215 1.88404 14.0829 1.78294C14.7308 1.74775 15.2377 1.89489 15.623 2.15208C15.3248 0.915931 15.2056 -0.099182 15.8618 0.00774238C16.7192 0.147455 17.0475 1.03172 16.9907 2.33114C17.3964 1.96602 17.9749 1.74023 18.7612 1.78294C20.6226 1.88404 20.1541 2.9956 18.8798 4C20.1541 5.00441 20.6226 6.11596 18.7612 6.21706C17.9749 6.25977 17.3964 6.03398 16.9907 5.66886C17.0475 6.96828 16.7192 7.85254 15.8618 7.99226C15.2056 8.09918 15.3248 7.08407 15.623 5.84792C15.2377 6.10511 14.7308 6.25225 14.0829 6.21706C12.2215 6.11596 13.0614 5.00441 14.3483 4Z" fill="#F28482"/>
<path fill-rule="evenodd" clip-rule="evenodd" d="M16.1174 3.15486C16.3156 3.1282 16.5155 2.93226 16.692 3.02451C16.8664 3.11571 16.8394 3.3743 16.8935 3.56063C16.9359 3.70622 16.9629 3.84887 16.9756 3.99974C16.9893 4.16298 17.0252 4.32774 16.9711 4.48273C16.9117 4.653 16.8213 4.8353 16.6564 4.91461C16.4922 4.99361 16.3001 4.88428 16.1174 4.89347C15.9219 4.9033 15.7159 5.06494 15.5455 4.97049C15.3754 4.87624 15.4137 4.61891 15.3195 4.4512C15.2278 4.28801 15.0064 4.18592 15.0002 3.99974C14.9939 3.81417 15.1761 3.68019 15.2886 3.53084C15.3898 3.39668 15.4728 3.23784 15.6273 3.16777C15.7782 3.09931 15.9527 3.17702 16.1174 3.15486Z" fill="#F5CAC3"/>
<path d="M7.55777 24.8845C7.7183 24.5634 7.79857 24.4029 7.91831 24.2856C8.02421 24.1819 8.15184 24.103 8.29196 24.0547C8.45042 24 8.6299 24 8.98885 24H23.0111C23.3701 24 23.5496 24 23.708 24.0547C23.8482 24.103 23.9758 24.1819 24.0817 24.2856C24.2014 24.4029 24.2817 24.5634 24.4422 24.8845L24.8422 25.6845C25.2256 26.4512 25.4173 26.8345 25.3712 27.1462C25.331 27.4183 25.1805 27.6618 24.9551 27.8195C24.697 28 24.2684 28 23.4111 28H8.58885C7.73164 28 7.30303 28 7.04489 27.8195C6.81949 27.6618 6.66898 27.4183 6.62877 27.1462C6.58273 26.8345 6.77441 26.4512 7.15777 25.6845L7.55777 24.8845Z" fill="#F6BD60"/>
<mask id="mask0_614_4737" style="mask-type:alpha" maskUnits="userSpaceOnUse" x="8" y="28" width="16" height="14">
<path d="M8 28H24L22.2453 40.2828C22.1046 41.2681 21.2607 42 20.2654 42H11.7346C10.7393 42 9.89545 41.2681 9.75469 40.2828L8 28Z" fill="#F6BD60"/>
</mask>
<g mask="url(#mask0_614_4737)">
<path d="M8 28H24L22.3925 39.2526C22.2533 40.2267 22.1837 40.7138 21.9486 41.0802C21.7414 41.4031 21.4457 41.6596 21.0967 41.819C20.7008 42 20.2087 42 19.2247 42H12.7753C11.7913 42 11.2992 42 10.9033 41.819C10.5543 41.6596 10.2586 41.4031 10.0514 41.0802C9.81626 40.7138 9.74668 40.2267 9.60751 39.2525L8 28Z" fill="#F6BD60"/>
<path opacity="0.1" d="M8 28H24V33L19 32.1667L8 30.5V28Z" fill="black"/>
</g>
</svg>
