<svg width="326" height="96" viewBox="0 0 326 96" fill="none" xmlns="http://www.w3.org/2000/svg">
<g clip-path="url(#clip0_1481_5942)">
<rect width="326" height="96" rx="16" fill="#D7DACE"/>
<g style="mix-blend-mode:hard-light">
<path d="M171.911 53.5948C171.777 59.6821 169.886 64.7692 164.23 70.425C154.278 80.3773 138.736 80.9151 124 75L124.86 69.783C139.627 74.2909 148.168 69.5184 153.116 66.0727C150.774 65.3114 148.467 63.5556 146.658 61.3826C141.919 55.6944 142.024 47.3767 147.259 42.1418C149.898 39.5023 153.495 38.0365 157.259 38.0669C161.022 38.0973 164.643 39.6214 167.326 42.3039C170.426 45.4047 171.998 49.763 171.914 53.5977L171.911 53.5948Z" fill="#423E37"/>
</g>
<path d="M127.124 71.9915L125.71 73.4057L124.296 74.8199L115.103 67.0417C118.226 68.6326 120.937 65.9219 119.346 62.7991L127.124 71.9915Z" fill="black"/>
<path fill-rule="evenodd" clip-rule="evenodd" d="M236.489 3L232.632 4.81386L234.43 8.70368L237.456 7.28072L247.259 5.71454L247.109 4.75687L237.975 6.21602L236.489 3ZM169.357 4.42394L163.351 3.78725L163.251 4.75155L169.257 5.38824L169.357 4.42394ZM286.722 24.0827L289.28 14.4529L287.46 13.961L284.902 23.5908L286.722 24.0827ZM205.648 24.149L202.276 26.5304L201.725 25.7361L205.097 23.3547L205.648 24.149ZM88.3703 27.0578L100.132 26.0199L100.216 26.9858L88.4541 28.0237L88.3703 27.0578ZM66.296 90.8642L66.7863 90.6842L68.922 90.4197L69.0298 89.8606L71.0673 89.1126L70.4229 87.3268L69.4492 87.6842L69.4891 87.477L66.8897 86.0237L64.7161 88.0682L65.9721 90.7851L66.2548 90.7501L66.296 90.8642ZM23.0028 75.5381L15.9733 79.3081L15.0887 77.6301L22.1182 73.8601L23.0028 75.5381ZM108.558 60.0244L104.225 68.9849L102.531 68.1518L106.864 59.1913L108.558 60.0244ZM213.481 83.6854L216.222 89.1126L217.901 88.2498L215.16 82.8226L213.481 83.6854ZM312.351 79.4165L315.234 78.1222L316 79.8583L313.118 81.1526L312.351 79.4165ZM11.4673 44.5107L11.6827 40.3646L12.6427 40.4153L12.4272 44.5615L11.4673 44.5107ZM217.71 21.8634L216.222 22.2097L216.421 23.0758L219.687 22.3981L226.069 20.9119L225.853 19.9671L218.93 21.5793L218.503 21.1174L217.71 21.8634ZM274.861 74.5685L283.555 72.544L283.979 74.3957L275.285 76.4202L274.861 74.5685ZM11.2156 63.3427L19.1576 63.9028L19.2247 62.9356L11.2826 62.3754L11.2156 63.3427ZM229.321 66.7014L230.993 68.1677L229.54 69.8546L227.867 68.3882L229.321 66.7014ZM153.514 81.4661L151.459 77.5663L149.138 81.312L153.514 81.4661ZM262.963 70.7258L262.502 72.7382L260.544 73.342L259.047 71.9335L262.963 70.7258ZM83.1911 87.8355L82.1617 92L78.0329 90.9617L79.0623 86.7972L83.1911 87.8355ZM236.619 87.0547L238.494 90.0803L241.926 89.2171L236.619 87.0547ZM75.109 17.9085L70.9185 18.6538L70.1796 14.4271L74.3701 13.6818L75.109 17.9085ZM210.24 38.8083L212.643 40.6347L215.413 39.4489L215.78 36.4367L210.24 38.8083ZM254.022 21.0126L256.965 21.4298L257.482 24.382L252.719 23.7069L254.022 21.0126ZM167.196 64.8724L167.053 69.0217L166.092 68.9879L166.236 64.8386L167.196 64.8724ZM283.385 85.2823L279.667 90.0822L280.425 90.6791L284.143 85.8793L283.385 85.2823ZM286.396 37.7235L286.19 25.8166L287.152 25.7997L287.358 37.7065L286.396 37.7235ZM30.9121 83.2949L23.9642 84.1554L24.0813 85.1178L31.0293 84.2573L30.9121 83.2949ZM238.332 35.7842L239.708 25.9118L240.659 26.0467L239.284 35.9192L238.332 35.7842ZM113.51 60.1436L117.209 61.9636L118.035 60.2555L114.336 58.4355L113.51 60.1436ZM298.893 80.3861L293.278 87.3803L291.814 86.1843L297.429 79.1901L298.893 80.3861ZM287.341 83.7455L291.203 74.5685L290.318 74.1896L286.456 83.3666L287.341 83.7455ZM212.377 47.4195L216.935 51.4156L216.304 52.1474L211.747 48.1513L212.377 47.4195ZM108.045 18.5756L106.635 20.2706L107.372 20.8938L108.782 19.1989L108.045 18.5756ZM293.125 31.9059L297.04 33.1888L296.743 34.111L292.828 32.828L293.125 31.9059ZM169.291 7.4539L166.235 11.5441L167.003 12.1276L170.058 8.03743L169.291 7.4539ZM217.912 88.3746L224.874 89.1126L225.071 87.2226L218.109 86.4845L217.912 88.3746ZM213.339 91.0518L211.273 86.3731L212.152 85.9787L214.217 90.6574L213.339 91.0518ZM91.2201 83.3816L91.6794 85.7649L94.0685 86.0608L95.0858 83.8604L93.3254 82.2046L91.2201 83.3816ZM208.626 71.0487L210.287 73.4412L207.915 75.1164L206.254 72.7239L208.626 71.0487ZM272.34 48.4249L271.556 46.1293L269.149 46.1717L268.446 48.4935L272.34 48.4249ZM282.933 47.9866L280.882 44.4033L287.374 43.0114L282.933 47.9866ZM223.444 41.331L224.393 42.9235L226.188 42.5056L226.348 40.6547L224.653 39.9288L223.444 41.331ZM188.792 14.7297L190.606 15.0523L190.862 16.8922L189.207 17.7067L187.927 16.3702L188.792 14.7297ZM31.9444 27.8372L33.9544 27.4431L34.621 25.4904L33.2777 23.9317L31.2677 24.3258L30.6011 26.2785L31.9444 27.8372ZM63.511 82.0976L62.9096 77.1572L67.8077 76.5505L68.4091 81.491L63.511 82.0976ZM94.4896 31.6845L97.8879 34.2674L100.449 30.8397L97.0504 28.2568L94.4896 31.6845ZM268.604 28.8474L268.384 26.307L272.746 25.922L272.967 28.4624L270.896 29.9251L268.604 28.8474ZM11 15.3416L12.8704 17.6714L15.6451 16.597L15.4895 13.6034L12.6187 12.8275L11 15.3416ZM25.5071 89.3114L24.087 89.9794L22.8035 89.0728L22.9401 87.4984L24.3602 86.8305L25.6437 87.737L25.5071 89.3114ZM294.937 46.2589L294.101 50.5946L298.241 49.1566L294.937 46.2589Z" fill="#5D97D1"/>
<path d="M120.053 57.8493C124.473 66.0567 118.361 72.1682 110.154 67.7488L81.8695 49.3641L91.769 39.4646L101.669 29.5651L120.053 57.8493Z" fill="white"/>
<path fill-rule="evenodd" clip-rule="evenodd" d="M32.5061 0L81.8695 49.3641L86.7901 54.2848C88.063 55.5576 90.0254 55.8325 91.5989 54.9583C98.1803 51.302 103.606 45.8759 107.263 39.2946C108.137 37.721 107.862 35.7586 106.589 34.4858L101.668 29.5651L72.1038 0H32.5061Z" fill="#F28482"/>
<path fill-rule="evenodd" clip-rule="evenodd" d="M88.9712 49.8416C91.5719 51.7545 95.8144 50.3369 93 49C73 39.5 69.5 18 59.7114 10.6101C41.0277 -7.42381 49.7108 20.9635 88.9712 49.8416Z" fill="#F09391"/>
<path fill-rule="evenodd" clip-rule="evenodd" d="M266.224 21.6299C261.376 24.4286 243.918 30.7273 244.783 37.843C246.054 48.3056 253 57.5 257.241 60.5C259 60.5 258.753 61.8633 259.5 62.5C260.317 63.1963 262.5 63.5 263.5 64.5C264.5 65.5 263.625 66.3901 265.5 67C269.125 66.8901 267.579 68.5633 268.5 69C269.654 69.5471 269.924 68.7655 271 69C272.964 68.4381 272.5 71 274.5 71C278.152 69.916 283.647 67.6432 290.504 63.6844C298.838 58.873 314.905 52.5068 319.336 45.3218C324.094 37.6055 316.776 28.9964 312.685 21.91C309.332 16.1027 305.89 6.05 298.754 5.70951C289.481 5.26708 275.754 16.1276 266.224 21.6299Z" fill="#5D97D1"/>
<path fill-rule="evenodd" clip-rule="evenodd" d="M293.5 59.4999C309.17 50.4529 330.5 46.5 308.201 19.6191C290.054 -2.2558 295.12 14.0207 274.247 21.4785C238.35 34.3041 247.387 40.7487 253.441 51.2345C261.5 68.4999 264.523 54.5802 272 55.9999C279.024 57.3336 276.263 73.8843 293.5 59.4999Z" fill="#67A1DA"/>
</g>
<defs>
<clipPath id="clip0_1481_5942">
<rect width="326" height="96" fill="white"/>
</clipPath>
</defs>
</svg>
