<svg width="24" height="24" viewBox="0 0 24 24" fill="none" xmlns="http://www.w3.org/2000/svg">
<path fill-rule="evenodd" clip-rule="evenodd" d="M19.0793 3.32933C19.2904 3.11831 19.5766 2.99976 19.875 2.99976C20.1734 2.99976 20.4596 3.11831 20.6707 3.32933C20.8817 3.54036 21.0002 3.82657 21.0002 4.125C21.0002 4.42344 20.8817 4.70965 20.6707 4.92067L19.5135 6.07784L17.9225 4.48685L19.0793 3.32933ZM16.862 5.54763L18.4528 7.1385L15.41 10.1814C15.9208 10.0627 16.4531 10 17 10C17.2294 10 17.4563 10.011 17.6801 10.0326L21.7313 5.98133C22.2237 5.489 22.5002 4.82126 22.5002 4.125C22.5002 3.42874 22.2237 2.761 21.7313 2.26867C21.239 1.77634 20.5713 1.49976 19.875 1.49976C19.1787 1.49976 18.5108 1.7765 18.0185 2.26883L7.39951 12.8878C6.78313 13.5046 6.33002 14.2653 6.08118 15.101L5.28123 17.7858C5.20259 18.0498 5.27493 18.3356 5.46967 18.5303C5.66441 18.7251 5.95022 18.7974 6.21416 18.7188L8.89916 17.9188C9.28934 17.8026 9.66318 17.6419 10.0137 17.4408C10.0046 17.295 10 17.148 10 17C10 16.4531 10.0627 15.9208 10.1814 15.41L10.0517 15.5397C9.61113 15.9799 9.06774 16.3035 8.47084 16.4812L7.11471 16.8853L7.51882 15.529C7.69653 14.9321 8.02028 14.3887 8.46049 13.9482L16.862 5.54763ZM10.7986 20.25H5.25C4.85218 20.25 4.47064 20.092 4.18934 19.8107C3.90804 19.5294 3.75 19.1478 3.75 18.75V8.25C3.75 7.85218 3.90804 7.47065 4.18934 7.18934C4.47064 6.90804 4.85218 6.75 5.25 6.75H10C10.4142 6.75 10.75 6.41422 10.75 6C10.75 5.58579 10.4142 5.25 10 5.25H5.25C4.45435 5.25 3.69129 5.56607 3.12868 6.12868C2.56607 6.69129 2.25 7.45435 2.25 8.25V18.75C2.25 19.5457 2.56607 20.3087 3.12868 20.8713C3.69129 21.4339 4.45435 21.75 5.25 21.75H11.8582C11.4428 21.3006 11.0856 20.7966 10.7986 20.25Z" fill="#D7DACE"/>
<path d="M19.4 16.2308V14.3077C19.4 13.6957 19.1471 13.1087 18.6971 12.6759C18.247 12.2431 17.6365 12 17 12C16.3635 12 15.753 12.2431 15.3029 12.6759C14.8529 13.1087 14.6 13.6957 14.6 14.3077V16.2308M14.2 21H19.8C20.1183 21 20.4235 20.8784 20.6485 20.662C20.8736 20.4457 21 20.1522 21 19.8462V17.3846C21 17.0786 20.8736 16.7851 20.6485 16.5687C20.4235 16.3523 20.1183 16.2308 19.8 16.2308H14.2C13.8817 16.2308 13.5765 16.3523 13.3515 16.5687C13.1264 16.7851 13 17.0786 13 17.3846V19.8462C13 20.1522 13.1264 20.4457 13.3515 20.662C13.5765 20.8784 13.8817 21 14.2 21Z" stroke="#423E37" stroke-width="1.5" stroke-linecap="round" stroke-linejoin="round"/>
</svg>
