<svg width="326" height="96" viewBox="0 0 326 96" fill="none" xmlns="http://www.w3.org/2000/svg">
<mask id="mask0_971_5226" style="mask-type:alpha" maskUnits="userSpaceOnUse" x="0" y="0" width="326" height="96">
<rect width="326" height="96" rx="16" fill="#F2F2F2"/>
</mask>
<g mask="url(#mask0_971_5226)">
<rect width="326" height="96" rx="16" fill="#F7EDE2"/>
<path fill-rule="evenodd" clip-rule="evenodd" d="M95.9355 -18.0708L75.7495 -29.7252L49.2983 16.0896C48.0296 18.2871 47.9729 20.9808 49.1481 23.2298C55.8005 35.9614 69.2097 43.7032 83.5618 43.0986C86.0971 42.9918 88.4016 41.5959 89.6703 39.3984L93.7904 32.2623C94.4636 31.0963 95.4516 30.1262 96.6382 29.49C122.77 15.4785 134.565 18.4611 138.51 20.4714C139.381 20.9151 140.602 20.7012 141.091 19.8549L141.415 19.2942C141.823 18.5864 141.58 17.6768 140.854 17.3007C129.483 11.4061 116.303 13.0322 106.392 15.6767C105.091 16.024 103.978 14.617 104.651 13.4502L116.122 -6.41642L95.9355 -18.0708Z" fill="#F28482"/>
<path opacity="0.1" fill-rule="evenodd" clip-rule="evenodd" d="M68.6994 -6.92751C70.903 -10.7442 73.5868 -14.0406 76.5505 -16.7311C78.0496 -18.092 77.9233 -20.5979 76.1699 -21.6102V-21.6102C74.8405 -22.3778 73.1404 -21.9222 72.3729 -20.5928L51.1449 16.1752C50.06 18.0542 49.9748 20.3363 50.919 22.2244C56.2643 32.9128 67.2923 39.2798 79.2214 38.5648C58.5 29.5 56.0368 15.0047 68.6994 -6.92751Z" fill="#F2F2F2"/>
<ellipse cx="140.169" cy="19.0113" rx="0.99656" ry="1.32875" transform="rotate(47.8142 140.169 19.0113)" fill="#423E37"/>
<path d="M168.571 89C166.5 83.5729 164.843 71.7012 174.783 67.6308C184.723 63.5605 184 83 168.571 89Z" fill="#9B9B7A"/>
<path d="M164.736 86.2882C158.988 87.1205 147.041 86.1378 145.246 75.548C143.451 64.9582 162.26 69.9198 164.736 86.2882Z" fill="#9B9B7A"/>
<path d="M164.087 77C166.002 71.7939 165.474 60.4181 156.887 61.0232C147.034 61.7175 158.34 68.5401 164.087 77Z" fill="#9B9B7A"/>
<path d="M148.796 92.7689C149.104 92.1268 149.258 91.8057 149.488 91.5712C149.691 91.3637 149.936 91.206 150.205 91.1093C150.509 91 150.854 91 151.543 91H178.457C179.146 91 179.491 91 179.795 91.1093C180.064 91.206 180.309 91.3637 180.512 91.5712C180.742 91.8057 180.896 92.1268 181.204 92.7689L181.972 94.3689C182.708 95.9024 183.075 96.6691 182.987 97.2923C182.91 97.8365 182.621 98.3236 182.188 98.6389C181.693 99 180.87 99 179.225 99H150.775C149.13 99 148.307 99 147.812 98.6389C147.379 98.3236 147.09 97.8365 147.013 97.2923C146.925 96.6691 147.292 95.9024 148.028 94.3689L148.796 92.7689Z" fill="#F6BD60"/>
<path d="M155.555 33.587C154.535 34.7444 153.875 36.731 154.02 38.292C154.191 40.1352 155.707 41.587 157.591 41.587C158.542 41.587 159.453 41.2103 160.125 40.5396C160.797 39.869 161.174 38.9594 161.174 38.011C161.174 35.088 158.215 33.587 155.555 33.587Z" fill="#3B92E9"/>
<circle cx="158.174" cy="39.587" r="1" transform="rotate(-90 158.174 39.587)" fill="white"/>
<path d="M140.811 20.1222C140.506 21.6346 140.928 23.6854 141.834 24.9646C142.904 26.4753 144.942 26.9747 146.574 26.0324C147.397 25.5574 147.998 24.7754 148.245 23.8587C148.491 22.942 148.363 21.9656 147.889 21.1442C146.428 18.6128 143.114 18.7924 140.811 20.1222Z" fill="#3B92E9"/>
<circle cx="146.079" cy="24.0091" r="1" transform="rotate(-120 146.079 24.0091)" fill="white"/>
<path d="M163.201 50.2699C161.844 51.0036 160.537 52.6398 160.134 54.1548C159.658 55.9435 160.579 57.8297 162.348 58.4807C163.239 58.8089 164.225 58.7702 165.087 58.3729C165.949 57.9757 166.617 57.2525 166.945 56.3625C167.955 53.6194 165.696 51.1886 163.201 50.2699Z" fill="#3B92E9"/>
<circle cx="163.585" cy="56.8051" r="1" transform="rotate(-69.7906 163.585 56.8051)" fill="white"/>
</g>
</svg>
