<svg width="24" height="24" viewBox="0 0 24 24" fill="none" xmlns="http://www.w3.org/2000/svg">
<g clip-path="url(#clip0_1058_6923)">
<path d="M15.4615 5.76519C16.196 5.76519 16.9003 6.05703 17.4197 6.5765C17.939 7.09597 18.2308 7.80052 18.2308 8.53516M21 8.53516C21.0001 9.34317 20.8235 10.1414 20.4826 10.874C20.1417 11.6065 19.6447 12.2556 19.0265 12.7757C18.4083 13.2958 17.6839 13.6743 16.9039 13.8847C16.124 14.0952 15.3075 14.1324 14.5117 13.9938C13.992 13.9043 13.4418 14.0178 13.0689 14.3909L10.6154 16.8451H8.53846V18.9225H6.46154V21H3V18.3981C3 17.8469 3.21877 17.3178 3.60831 16.9291L9.60738 10.9284C9.98031 10.5554 10.0938 10.0051 10.0043 9.48526C9.87341 8.72921 9.90096 7.95421 10.0852 7.20937C10.2694 6.46452 10.6064 5.76609 11.0746 5.15832C11.5428 4.55055 12.1322 4.0467 12.8053 3.6787C13.4784 3.31071 14.2206 3.08659 14.9849 3.02056C15.7491 2.95452 16.5188 3.048 17.245 3.29509C17.9712 3.54217 18.6382 3.93746 19.2038 4.45591C19.7693 4.97435 20.2209 5.60465 20.5301 6.30686C20.8393 7.00906 20.9993 7.76786 21 8.53516Z" stroke="black" stroke-width="1.5" stroke-linecap="round" stroke-linejoin="round"/>
</g>
<defs>
<clipPath id="clip0_1058_6923">
<rect width="24" height="24" fill="white"/>
</clipPath>
</defs>
</svg>
