<svg width="42" height="42" viewBox="0 0 42 42" fill="none" xmlns="http://www.w3.org/2000/svg">
<g filter="url(#filter0_b_1334_9668)">
<path d="M21 42C9.4017 42 0 32.5983 0 21C0 9.4017 9.4017 0 21 0C32.5983 0 42 9.4017 42 21C42 32.5983 32.5983 42 21 42Z" fill="#7E7E5C"/>
</g>
<rect x="4" y="4" width="34" height="34" rx="8" fill="#7E7E5C"/>
<path d="M26.0821 21.2887L18.0862 26.1919C18.0294 26.2267 17.9634 26.2466 17.8952 26.2496C17.8271 26.2526 17.7593 26.2385 17.6992 26.2089C17.639 26.1793 17.5887 26.1352 17.5536 26.0814C17.5186 26.0276 17.5 25.966 17.5 25.9032V16.0968C17.5 16.034 17.5186 15.9724 17.5536 15.9186C17.5887 15.8648 17.639 15.8207 17.6992 15.7911C17.7593 15.7615 17.8271 15.7474 17.8952 15.7504C17.9634 15.7534 18.0294 15.7733 18.0862 15.8081L26.0821 20.7113C26.1337 20.743 26.1761 20.7859 26.2054 20.8363C26.2347 20.8867 26.25 20.9429 26.25 21C26.25 21.0571 26.2347 21.1133 26.2054 21.1637C26.1761 21.2141 26.1337 21.257 26.0821 21.2887Z" fill="black" stroke="black" stroke-width="2"/>
<defs>
<filter id="filter0_b_1334_9668" x="-16" y="-16" width="74" height="74" filterUnits="userSpaceOnUse" color-interpolation-filters="sRGB">
<feFlood flood-opacity="0" result="BackgroundImageFix"/>
<feGaussianBlur in="BackgroundImageFix" stdDeviation="8"/>
<feComposite in2="SourceAlpha" operator="in" result="effect1_backgroundBlur_1334_9668"/>
<feBlend mode="normal" in="SourceGraphic" in2="effect1_backgroundBlur_1334_9668" result="shape"/>
</filter>
</defs>
</svg>
