<svg width="24" height="24" viewBox="0 0 24 24" fill="none" xmlns="http://www.w3.org/2000/svg">
<g clip-path="url(#clip0_1417_9610)">
<circle cx="10.5" cy="10.5" r="5.5" fill="#D7DACE"/>
<path d="M21 21L15.803 15.803M15.803 15.803C17.2096 14.3964 17.9998 12.4887 17.9998 10.4995C17.9998 8.51031 17.2096 6.60258 15.803 5.196C14.3964 3.78943 12.4887 2.99922 10.4995 2.99922C8.51029 2.99922 6.60256 3.78943 5.19599 5.196C3.78941 6.60258 2.99921 8.51031 2.99921 10.4995C2.99921 12.4887 3.78941 14.3964 5.19599 15.803C6.60256 17.2096 8.51029 17.9998 10.4995 17.9998C12.4887 17.9998 14.3964 17.2096 15.803 15.803Z" stroke="#D7DACE" stroke-width="1.5" stroke-linecap="round" stroke-linejoin="round"/>
<circle cx="13" cy="8" r="3" fill="white"/>
</g>
<defs>
<clipPath id="clip0_1417_9610">
<rect width="24" height="24" fill="white"/>
</clipPath>
</defs>
</svg>
