<svg width="24" height="24" viewBox="0 0 24 24" fill="none" xmlns="http://www.w3.org/2000/svg">
<g clip-path="url(#clip0_1024_22886)">
<path d="M3.97996 8.223C3.04442 9.32718 2.34778 10.6132 1.93396 12C3.22596 16.338 7.24396 19.5 12 19.5C12.993 19.5 13.953 19.362 14.863 19.105M6.22796 6.228C7.94058 5.09781 9.94804 4.49682 12 4.5C16.756 4.5 20.773 7.662 22.065 11.998C21.3568 14.3673 19.8369 16.4115 17.772 17.772M6.22796 6.228L2.99996 3M6.22796 6.228L9.87796 9.878M17.772 17.772L21 21M17.772 17.772L14.122 14.122C14.4006 13.8434 14.6216 13.5127 14.7723 13.1486C14.9231 12.7846 15.0007 12.3945 15.0007 12.0005C15.0007 11.6065 14.9231 11.2164 14.7723 10.8524C14.6216 10.4883 14.4006 10.1576 14.122 9.879C13.8434 9.6004 13.5126 9.3794 13.1486 9.22863C12.7846 9.07785 12.3945 9.00025 12.0005 9.00025C11.6065 9.00025 11.2163 9.07785 10.8523 9.22863C10.4883 9.3794 10.1576 9.6004 9.87896 9.879M14.121 14.121L9.87996 9.88" stroke="black" stroke-width="1.5" stroke-linecap="round" stroke-linejoin="round"/>
</g>
<defs>
<clipPath id="clip0_1024_22886">
<rect width="24" height="24" fill="white"/>
</clipPath>
</defs>
</svg>
