<svg width="32" height="42" viewBox="0 0 32 42" fill="none" xmlns="http://www.w3.org/2000/svg">
<path d="M15.5 25C16.5 24.5 18.2 22.6 17 19C15.5 14.5 13 16 13.5 12C14 8 17 13 17 7C17 2.2 20 4 21.5 5.5" stroke="#9B9B7A" stroke-width="1.5"/>
<path fill-rule="evenodd" clip-rule="evenodd" d="M20.4407 9.52009C20.9081 9.691 21.3202 9.95592 21.727 10.2605C22.1069 10.5449 22.4667 10.8423 22.744 11.2446C23.048 11.6856 23.2403 12.1814 23.4099 12.7018C23.648 13.4328 24.178 14.1846 23.9399 14.9156C23.7088 15.6251 22.8807 15.8266 22.2756 16.1843C21.6862 16.5326 21.1013 17.1037 20.4407 16.9837C19.7763 16.8631 19.4587 16.0279 18.9263 15.576C18.4774 15.195 17.8863 15.0321 17.5503 14.5305C17.1978 14.0042 16.9819 13.3543 17.0012 12.7018C17.0202 12.0571 17.4069 11.5246 17.6563 10.9403C17.9295 10.3001 17.9558 9.39352 18.5405 9.09532C19.1367 8.79122 19.8169 9.29198 20.4407 9.52009Z" fill="#BABD8D"/>
<path d="M7.55777 24.8845C7.7183 24.5634 7.79857 24.4029 7.91831 24.2856C8.02421 24.1819 8.15184 24.103 8.29196 24.0547C8.45042 24 8.6299 24 8.98885 24H23.0111C23.3701 24 23.5496 24 23.708 24.0547C23.8482 24.103 23.9758 24.1819 24.0817 24.2856C24.2014 24.4029 24.2817 24.5634 24.4422 24.8845L24.8422 25.6845C25.2256 26.4512 25.4173 26.8345 25.3712 27.1462C25.331 27.4183 25.1805 27.6618 24.9551 27.8195C24.697 28 24.2684 28 23.4111 28H8.58885C7.73164 28 7.30303 28 7.04489 27.8195C6.81949 27.6618 6.66898 27.4183 6.62877 27.1462C6.58273 26.8345 6.77441 26.4512 7.15777 25.6845L7.55777 24.8845Z" fill="#F6BD60"/>
<mask id="mask0_669_4058" style="mask-type:alpha" maskUnits="userSpaceOnUse" x="8" y="28" width="16" height="14">
<path d="M8 28H24L22.2453 40.2828C22.1046 41.2681 21.2607 42 20.2654 42H11.7346C10.7393 42 9.89545 41.2681 9.75469 40.2828L8 28Z" fill="#F6BD60"/>
</mask>
<g mask="url(#mask0_669_4058)">
<path d="M8 28H24L22.3925 39.2526C22.2533 40.2267 22.1837 40.7138 21.9486 41.0802C21.7414 41.4031 21.4457 41.6596 21.0967 41.819C20.7008 42 20.2087 42 19.2247 42H12.7753C11.7913 42 11.2992 42 10.9033 41.819C10.5543 41.6596 10.2586 41.4031 10.0514 41.0802C9.81626 40.7138 9.74668 40.2267 9.60751 39.2525L8 28Z" fill="#F6BD60"/>
<path opacity="0.1" d="M8 28H24V33L19 32.1667L8 30.5V28Z" fill="black"/>
</g>
<path fill-rule="evenodd" clip-rule="evenodd" d="M12.9905 39.578C13.1881 44.1034 10.2722 40.8058 7.28743 41.2923C4.58457 41.7329 6.56764 38.401 9.28197 38.025C11.1383 37.7679 10.0225 39.578 12.9905 39.578Z" fill="#F28482"/>
<path d="M27.3199 41.8124C28.8276 42.5654 29.6175 40.8915 29.9079 39.6269C29.9784 39.3199 29.8453 38.9958 29.5303 39.0001C29.1724 39.005 28.6219 39.1608 27.856 39.6708C26.2479 40.7416 24.6399 39.1354 24.1039 39.6708C23.5679 40.2062 25.1759 40.7416 27.3199 41.8124Z" fill="#F28482"/>
<path fill-rule="evenodd" clip-rule="evenodd" d="M12.7073 15.942C12.63 16.3584 12.5242 16.7487 12.3858 17.1497C12.2155 17.6434 12.2017 18.2326 11.7988 18.575C11.3864 18.9254 10.7781 19.0608 10.2379 18.975C9.71543 18.8919 9.30497 18.5003 8.94596 18.1214C8.64838 17.8073 8.63394 17.3325 8.36318 16.9961C8.02942 16.5816 7.38495 16.434 7.19145 15.942C6.98518 15.4176 6.85178 14.6444 7.29847 14.2892C7.81427 13.8791 8.59919 14.3577 9.26199 14.2957C9.60557 14.2636 9.89469 14.0496 10.2379 14.0143C10.6106 13.9759 10.9714 14.0205 11.3408 14.0817C11.8729 14.1698 12.5721 14.0254 12.8862 14.4529C13.1899 14.8664 12.8001 15.4417 12.7073 15.942Z" fill="#9B9B7A"/>
</svg>
