<svg width="26" height="26" viewBox="0 0 26 26" fill="none" xmlns="http://www.w3.org/2000/svg">
<circle cx="13" cy="13" r="10" fill="#F2F2F2"/>
<path d="M16.5356 16.5356C16.0713 16.9999 15.5201 17.3682 14.9134 17.6194C14.3068 17.8707 13.6566 18 13 18C12.3434 18 11.6932 17.8707 11.0866 17.6194C10.4799 17.3682 9.92874 16.9999 9.46444 16.5356M23 13C23 14.3132 22.7413 15.6136 22.2388 16.8268C21.7362 18.0401 20.9997 19.1425 20.0711 20.0711C19.1425 20.9997 18.0401 21.7362 16.8268 22.2388C15.6136 22.7413 14.3132 23 13 23C11.6868 23 10.3864 22.7413 9.17317 22.2388C7.95991 21.7362 6.85752 20.9997 5.92893 20.0711C5.00035 19.1425 4.26375 18.0401 3.7612 16.8268C3.25866 15.6136 3 14.3132 3 13C3 10.3478 4.05357 7.8043 5.92893 5.92893C7.8043 4.05357 10.3478 3 13 3C15.6522 3 18.1957 4.05357 20.0711 5.92893C21.9464 7.8043 23 10.3478 23 13ZM10.5 10.5C10.5 10.96 10.3133 11.3333 10.0833 11.3333C9.85333 11.3333 9.66667 10.96 9.66667 10.5C9.66667 10.04 9.85333 9.66667 10.0833 9.66667C10.3133 9.66667 10.5 10.04 10.5 10.5ZM10.0833 10.5H10.0922V10.5167H10.0833V10.5ZM16.3333 10.5C16.3333 10.96 16.1467 11.3333 15.9167 11.3333C15.6867 11.3333 15.5 10.96 15.5 10.5C15.5 10.04 15.6867 9.66667 15.9167 9.66667C16.1467 9.66667 16.3333 10.04 16.3333 10.5ZM15.9167 10.5H15.9256V10.5167H15.9167V10.5Z" stroke="#A5A5A5" stroke-width="1.5" stroke-linecap="round" stroke-linejoin="round"/>
</svg>
