<svg width="32" height="32" viewBox="0 0 32 32" fill="none" xmlns="http://www.w3.org/2000/svg">
<rect x="0.5" y="0.5" width="31" height="31" rx="15.5" fill="white"/>
<path d="M20 14.6186C20 17.9783 17.7924 21.0112 14.5072 22.685C14.1275 22.8784 13.6693 22.7376 13.4379 22.3797C13.1622 21.9535 13.3114 21.3855 13.7366 21.1082C16.4443 19.3424 17.0228 17.2183 17.2659 15.8357C16.7172 16.1203 15.999 16.2196 15.295 16.1541C13.4519 15.9831 12 14.4671 12 12.5827C12 11.6325 12.3768 10.7212 13.0474 10.0493C13.718 9.37746 14.6276 9 15.576 9C18.499 9 20 11.959 20 14.6186Z" fill="#423E37"/>
<rect x="0.5" y="0.5" width="31" height="31" rx="15.5" stroke="#F2F2F2"/>
</svg>
